<svg width="1463" height="963" viewBox="0 0 1463 963" fill="none" xmlns="http://www.w3.org/2000/svg">
<mask id="mask0" mask-type="alpha" maskUnits="userSpaceOnUse" x="0" y="0" width="1463" height="963">
<rect width="1463" height="963" fill="#C4C4C4"/>
</mask>
<g mask="url(#mask0)">
<g style="mix-blend-mode:overlay">
<g style="mix-blend-mode:overlay">
<path d="M943.497 996.413C943.497 996.413 988.135 607.26 1479.62 524.257" stroke="#DBDBDB" stroke-width="0.45" stroke-miterlimit="10" stroke-linecap="round"/>
</g>
<g style="mix-blend-mode:overlay">
<path d="M955.042 1000.72C955.042 1000.72 1012.71 625.916 1482.59 535.747" stroke="#DBDBDB" stroke-width="0.57" stroke-miterlimit="10" stroke-linecap="round"/>
</g>
<g style="mix-blend-mode:overlay">
<path d="M966.587 1005.08C966.587 1005.08 1037.28 644.611 1485.56 547.275" stroke="#DBDBDB" stroke-width="0.69" stroke-miterlimit="10" stroke-linecap="round"/>
</g>
<g style="mix-blend-mode:overlay">
<path d="M978.132 1009.44C978.132 1009.44 1061.86 663.306 1488.6 558.803" stroke="#DBDBDB" stroke-width="0.82" stroke-miterlimit="10" stroke-linecap="round"/>
</g>
<g style="mix-blend-mode:overlay">
<path d="M989.678 1013.82C989.678 1013.82 1086.43 682.02 1491.47 570.331" stroke="#DBDBDB" stroke-width="0.94" stroke-miterlimit="10" stroke-linecap="round"/>
</g>
<g style="mix-blend-mode:overlay">
<path d="M1001.22 1018.18C1001.22 1018.18 1111.08 700.715 1494.44 581.859" stroke="#DBDBDB" stroke-width="1.06" stroke-miterlimit="10" stroke-linecap="round"/>
</g>
<g style="mix-blend-mode:overlay">
<path d="M1012.77 1022.56C1012.77 1022.56 1135.58 719.41 1497.39 593.388" stroke="#DBDBDB" stroke-width="1.19" stroke-miterlimit="10" stroke-linecap="round"/>
</g>
<g style="mix-blend-mode:overlay">
<path d="M1024.31 1026.92C1024.31 1026.92 1160.15 738.124 1500.38 604.916" stroke="#DBDBDB" stroke-width="1.31" stroke-miterlimit="10" stroke-linecap="round"/>
</g>
<g style="mix-blend-mode:overlay">
<path d="M1035.86 1031.29C1035.86 1031.29 1184.73 756.819 1503.33 616.444" stroke="#DBDBDB" stroke-width="1.43" stroke-miterlimit="10" stroke-linecap="round"/>
</g>
<g style="mix-blend-mode:overlay">
<path d="M1047.4 1035.65C1047.4 1035.65 1209.3 775.533 1506.27 627.972" stroke="#DBDBDB" stroke-width="1.55" stroke-miterlimit="10" stroke-linecap="round"/>
</g>
<g style="mix-blend-mode:overlay">
<path d="M1058.95 1040.03C1058.95 1040.03 1233.88 794.228 1509.24 639.5" stroke="#DBDBDB" stroke-width="1.68" stroke-miterlimit="10" stroke-linecap="round"/>
</g>
<g style="mix-blend-mode:overlay">
<path d="M1070.49 1044.45C1070.49 1044.45 1258.45 812.923 1512.21 651.029" stroke="#DBDBDB" stroke-width="1.8" stroke-miterlimit="10" stroke-linecap="round"/>
</g>
<g style="mix-blend-mode:overlay">
<path d="M1082.04 1048.75C1082.04 1048.75 1283.03 831.637 1515.18 662.557" stroke="#DBDBDB" stroke-width="1.92" stroke-miterlimit="10" stroke-linecap="round"/>
</g>
<g style="mix-blend-mode:overlay">
<path d="M1093.49 1053.13C1093.49 1053.13 1307.6 850.389 1518.13 674.104" stroke="#DBDBDB" stroke-width="2.05" stroke-miterlimit="10" stroke-linecap="round"/>
</g>
<g style="mix-blend-mode:overlay">
<path d="M1105.05 1057.49C1105.05 1057.49 1332.12 869.046 1521.04 685.632" stroke="#DBDBDB" stroke-width="2.17" stroke-miterlimit="10" stroke-linecap="round"/>
</g>
<g style="mix-blend-mode:overlay">
<path d="M1116.62 1061.85C1116.62 1061.85 1356.75 887.74 1524.07 697.16" stroke="#DBDBDB" stroke-width="2.29" stroke-miterlimit="10" stroke-linecap="round"/>
</g>
<g style="mix-blend-mode:overlay">
<path d="M1128.18 1066.22C1128.18 1066.22 1381.3 906.435 1526.99 708.688" stroke="#DBDBDB" stroke-width="2.42" stroke-miterlimit="10" stroke-linecap="round"/>
</g>
<g style="mix-blend-mode:overlay">
<path d="M1139.74 1070.6C1139.74 1070.6 1405.9 925.149 1529.98 720.217" stroke="#DBDBDB" stroke-width="2.54" stroke-miterlimit="10" stroke-linecap="round"/>
</g>
<g style="mix-blend-mode:overlay">
<path d="M1151.31 1074.96C1151.31 1074.96 1430.49 943.844 1532.93 731.745" stroke="#DBDBDB" stroke-width="2.66" stroke-miterlimit="10" stroke-linecap="round"/>
</g>
<g style="mix-blend-mode:overlay">
<path d="M1162.87 1079.32C1162.87 1079.32 1455.08 962.539 1535.94 743.273" stroke="#DBDBDB" stroke-width="2.79" stroke-miterlimit="10" stroke-linecap="round"/>
</g>
<g style="mix-blend-mode:overlay">
<path d="M1174.44 1083.7C1174.44 1083.7 1479.68 981.253 1538.92 754.801" stroke="#DBDBDB" stroke-width="2.91" stroke-miterlimit="10" stroke-linecap="round"/>
</g>
</g>
<g style="mix-blend-mode:overlay">
<g style="mix-blend-mode:overlay">
<path d="M2.14233 32.0423C2.14233 32.0423 36.8353 16.1719 59.5207 -11.1499" stroke="#DBDBDB" stroke-width="2.91" stroke-miterlimit="10" stroke-linecap="round"/>
</g>
<g style="mix-blend-mode:overlay">
<path d="M2.14233 53.5595C11.7793 51.7918 46.4723 20.0701 83.9214 -11.0752" stroke="#DBDBDB" stroke-width="2.8" stroke-miterlimit="10" stroke-linecap="round"/>
</g>
<g style="mix-blend-mode:overlay">
<path d="M2.14233 75.0808C21.4162 71.5647 56.2826 23.9533 108.341 -10.9771" stroke="#DBDBDB" stroke-width="2.69" stroke-miterlimit="10" stroke-linecap="round"/>
</g>
<g style="mix-blend-mode:overlay">
<path d="M2.14233 96.5996C31.2073 91.3159 66.0353 27.8533 132.742 -10.9006" stroke="#DBDBDB" stroke-width="2.57" stroke-miterlimit="10" stroke-linecap="round"/>
</g>
<g style="mix-blend-mode:overlay">
<path d="M2.14233 118.118C40.9021 111.066 75.8071 31.7523 157.162 -10.8059" stroke="#DBDBDB" stroke-width="2.46" stroke-miterlimit="10" stroke-linecap="round"/>
</g>
<g style="mix-blend-mode:overlay">
<path d="M2.14233 139.657C50.5969 130.838 85.579 35.6537 181.563 -10.7087" stroke="#DBDBDB" stroke-width="2.35" stroke-miterlimit="10" stroke-linecap="round"/>
</g>
<g style="mix-blend-mode:overlay">
<path d="M2.14233 161.176C60.2723 150.589 95.3315 39.5347 205.983 -10.6321" stroke="#DBDBDB" stroke-width="2.24" stroke-miterlimit="10" stroke-linecap="round"/>
</g>
<g style="mix-blend-mode:overlay">
<path d="M2.14233 182.696C70.0442 170.36 105.103 43.416 230.384 -10.5359" stroke="#DBDBDB" stroke-width="2.13" stroke-miterlimit="10" stroke-linecap="round"/>
</g>
<g style="mix-blend-mode:overlay">
<path d="M2.14233 204.216C79.6811 190.113 114.856 47.2595 254.804 -10.3813" stroke="#DBDBDB" stroke-width="2.02" stroke-miterlimit="10" stroke-linecap="round"/>
</g>
<g style="mix-blend-mode:overlay">
<path d="M2.14233 225.735C89.3181 209.864 124.628 51.2368 279.204 -10.3813" stroke="#DBDBDB" stroke-width="1.9" stroke-miterlimit="10" stroke-linecap="round"/>
</g>
<g style="mix-blend-mode:overlay">
<path d="M2.14233 247.254C99.0321 229.635 134.38 55.1178 303.624 -10.2085" stroke="#DBDBDB" stroke-width="1.79" stroke-miterlimit="10" stroke-linecap="round"/>
</g>
<g style="mix-blend-mode:overlay">
<path d="M2.14233 268.793C108.727 249.387 144.152 59.0183 328.025 -10.1892" stroke="#DBDBDB" stroke-width="1.68" stroke-miterlimit="10" stroke-linecap="round"/>
</g>
<g style="mix-blend-mode:overlay">
<path d="M2.14233 290.312C118.422 269.177 153.905 62.9188 352.445 -10.093" stroke="#DBDBDB" stroke-width="1.57" stroke-miterlimit="10" stroke-linecap="round"/>
</g>
<g style="mix-blend-mode:overlay">
<path d="M2.14233 311.831C128.097 288.909 163.677 66.819 376.846 -9.99707" stroke="#DBDBDB" stroke-width="1.46" stroke-miterlimit="10" stroke-linecap="round"/>
</g>
<g style="mix-blend-mode:overlay">
<path d="M2.14233 333.35C137.792 308.661 173.449 70.7002 401.266 -9.92017" stroke="#DBDBDB" stroke-width="1.35" stroke-miterlimit="10" stroke-linecap="round"/>
</g>
<g style="mix-blend-mode:overlay">
<path d="M2.14233 354.87C147.487 328.432 183.201 74.6005 425.666 -9.82422" stroke="#DBDBDB" stroke-width="1.23" stroke-miterlimit="10" stroke-linecap="round"/>
</g>
<g style="mix-blend-mode:overlay">
<path d="M2.14233 376.389C157.162 348.183 192.954 78.5778 450.086 -9.80493" stroke="#DBDBDB" stroke-width="1.12" stroke-miterlimit="10" stroke-linecap="round"/>
</g>
<g style="mix-blend-mode:overlay">
<path d="M2.14233 397.908C166.857 367.935 202.726 82.4011 474.487 -9.65137" stroke="#DBDBDB" stroke-width="1.01" stroke-miterlimit="10" stroke-linecap="round"/>
</g>
<g style="mix-blend-mode:overlay">
<path d="M2.14233 419.447C176.552 387.706 212.497 86.2822 498.907 -9.55542" stroke="#DBDBDB" stroke-width="0.9" stroke-miterlimit="10" stroke-linecap="round"/>
</g>
<g style="mix-blend-mode:overlay">
<path d="M2.14233 440.966C186.246 407.457 222.25 90.1826 523.308 -9.47852" stroke="#DBDBDB" stroke-width="0.79" stroke-miterlimit="10" stroke-linecap="round"/>
</g>
<g style="mix-blend-mode:overlay">
<path d="M2.14233 462.485C195.922 427.209 231.945 94.0831 547.728 -9.38232" stroke="#DBDBDB" stroke-width="0.68" stroke-miterlimit="10" stroke-linecap="round"/>
</g>
<g style="mix-blend-mode:overlay">
<path d="M2.14233 484.005C205.617 446.903 241.774 97.9836 572.129 -9.28613" stroke="#DBDBDB" stroke-width="0.56" stroke-miterlimit="10" stroke-linecap="round"/>
</g>
</g>
<g style="mix-blend-mode:overlay">
<g style="mix-blend-mode:overlay">
<path d="M829.994 -45.0813C1135.89 71.3149 1133 486.829 1498.08 445.577" stroke="#DBDBDB" stroke-width="0.45" stroke-miterlimit="10" stroke-linecap="round"/>
</g>
<g style="mix-blend-mode:overlay">
<path d="M837.145 -55.0339C1139.09 63.7255 1153.24 471.65 1511.73 426.133" stroke="#DBDBDB" stroke-width="0.56" stroke-miterlimit="10" stroke-linecap="round"/>
</g>
<g style="mix-blend-mode:overlay">
<path d="M844.18 -64.9866C1142.25 56.1362 1173.65 456.51 1525.22 406.67" stroke="#DBDBDB" stroke-width="0.68" stroke-miterlimit="10" stroke-linecap="round"/>
</g>
<g style="mix-blend-mode:overlay">
<path d="M851.272 -74.9199C1145.39 48.5469 1193.96 441.293 1538.87 387.226" stroke="#DBDBDB" stroke-width="0.8" stroke-miterlimit="10" stroke-linecap="round"/>
</g>
<g style="mix-blend-mode:overlay">
<path d="M858.346 -84.8728C1148.53 40.9573 1214.26 426.21 1552.46 367.781" stroke="#DBDBDB" stroke-width="0.92" stroke-miterlimit="10" stroke-linecap="round"/>
</g>
<g style="mix-blend-mode:overlay">
<path d="M865.458 -94.8062C1151.69 33.368 1234.61 410.954 1566.06 348.318" stroke="#DBDBDB" stroke-width="1.04" stroke-miterlimit="10" stroke-linecap="round"/>
</g>
<g style="mix-blend-mode:overlay">
<path d="M872.551 -104.759C1154.84 25.7786 1254.93 395.775 1579.67 328.874" stroke="#DBDBDB" stroke-width="1.16" stroke-miterlimit="10" stroke-linecap="round"/>
</g>
<g style="mix-blend-mode:overlay">
<path d="M879.644 -114.711C1157.98 18.2085 1275.26 380.597 1593.26 309.429" stroke="#DBDBDB" stroke-width="1.28" stroke-miterlimit="10" stroke-linecap="round"/>
</g>
<g style="mix-blend-mode:overlay">
<path d="M886.736 -124.645C1161.14 10.6192 1295.57 365.418 1606.87 289.985" stroke="#DBDBDB" stroke-width="1.39" stroke-miterlimit="10" stroke-linecap="round"/>
</g>
<g style="mix-blend-mode:overlay">
<path d="M893.848 -134.598C1164.28 3.02957 1315.95 350.239 1620.47 270.522" stroke="#DBDBDB" stroke-width="1.51" stroke-miterlimit="10" stroke-linecap="round"/>
</g>
<g style="mix-blend-mode:overlay">
<path d="M900.941 -144.55C1167.42 -4.61742 1336.22 335.06 1634.06 251.078" stroke="#DBDBDB" stroke-width="1.63" stroke-miterlimit="10" stroke-linecap="round"/>
</g>
<g style="mix-blend-mode:overlay">
<path d="M908.034 -154.484C1170.58 -12.1491 1356.56 319.882 1647.65 231.71" stroke="#DBDBDB" stroke-width="1.75" stroke-miterlimit="10" stroke-linecap="round"/>
</g>
<g style="mix-blend-mode:overlay">
<path d="M915.126 -164.436C1173.72 -19.7384 1376.81 304.722 1661.26 212.189" stroke="#DBDBDB" stroke-width="1.87" stroke-miterlimit="10" stroke-linecap="round"/>
</g>
<g style="mix-blend-mode:overlay">
<path d="M922.22 -174.389C1176.87 -27.328 1397.2 289.543 1674.85 192.726" stroke="#DBDBDB" stroke-width="1.99" stroke-miterlimit="10" stroke-linecap="round"/>
</g>
<g style="mix-blend-mode:overlay">
<path d="M929.312 -184.323C1180.03 -34.9173 1417.52 274.364 1688.45 173.282" stroke="#DBDBDB" stroke-width="2.11" stroke-miterlimit="10" stroke-linecap="round"/>
</g>
<g style="mix-blend-mode:overlay">
<path d="M936.405 -194.275C1183.11 -42.4875 1437.85 259.167 1702.06 153.837" stroke="#DBDBDB" stroke-width="2.22" stroke-miterlimit="10" stroke-linecap="round"/>
</g>
<g style="mix-blend-mode:overlay">
<path d="M943.498 -204.228C1186.35 -50.096 1458.11 244.007 1715.65 134.374" stroke="#DBDBDB" stroke-width="2.34" stroke-miterlimit="10" stroke-linecap="round"/>
</g>
<g style="mix-blend-mode:overlay">
<path d="M950.59 -214.161C1189.47 -57.6853 1478.48 228.828 1729.25 114.93" stroke="#DBDBDB" stroke-width="2.46" stroke-miterlimit="10" stroke-linecap="round"/>
</g>
<g style="mix-blend-mode:overlay">
<path d="M957.702 -224.114C1192.61 -65.2749 1498.82 213.649 1742.84 95.4855" stroke="#DBDBDB" stroke-width="2.58" stroke-miterlimit="10" stroke-linecap="round"/>
</g>
<g style="mix-blend-mode:overlay">
<path d="M964.795 -234.047C1195.75 -72.8642 1519.13 198.471 1756.51 76.0799" stroke="#DBDBDB" stroke-width="2.7" stroke-miterlimit="10" stroke-linecap="round"/>
</g>
<g style="mix-blend-mode:overlay">
<path d="M971.888 -244C1198.92 -80.4536 1539.47 183.292 1770 56.5781" stroke="#DBDBDB" stroke-width="2.82" stroke-miterlimit="10" stroke-linecap="round"/>
</g>
</g>
<g style="mix-blend-mode:overlay">
<g style="mix-blend-mode:overlay">
<path d="M622.992 1037.59C348.147 963.557 314.302 603.917 2.14233 671.376" stroke="#DBDBDB" stroke-width="0.45" stroke-miterlimit="10" stroke-linecap="round"/>
</g>
<g style="mix-blend-mode:overlay">
<path d="M617.711 1046.81C346.085 970.398 298.054 618.807 -7.9187 689.437" stroke="#DBDBDB" stroke-width="0.56" stroke-miterlimit="10" stroke-linecap="round"/>
</g>
<g style="mix-blend-mode:overlay">
<path d="M612.45 1055.97C344.022 977.199 281.806 633.698 -17.9797 707.382" stroke="#DBDBDB" stroke-width="0.68" stroke-miterlimit="10" stroke-linecap="round"/>
</g>
<g style="mix-blend-mode:overlay">
<path d="M607.188 1065.26C341.979 984.059 265.558 648.646 -28.0215 725.501" stroke="#DBDBDB" stroke-width="0.8" stroke-miterlimit="10" stroke-linecap="round"/>
</g>
<g style="mix-blend-mode:overlay">
<path d="M602.003 1074.48C339.878 990.899 249.291 663.498 -38.0825 743.408" stroke="#DBDBDB" stroke-width="0.92" stroke-miterlimit="10" stroke-linecap="round"/>
</g>
<g style="mix-blend-mode:overlay">
<path d="M596.664 1083.7C337.951 997.738 233.043 678.389 -48.1436 761.411" stroke="#DBDBDB" stroke-width="1.04" stroke-miterlimit="10" stroke-linecap="round"/>
</g>
<g style="mix-blend-mode:overlay">
<path d="M591.403 1092.92C335.792 1004.54 216.815 693.279 -58.127 779.414" stroke="#DBDBDB" stroke-width="1.16" stroke-miterlimit="10" stroke-linecap="round"/>
</g>
<g style="mix-blend-mode:overlay">
<path d="M586.121 1102.09C333.749 1011.38 200.644 708.208 -68.2654 797.379" stroke="#DBDBDB" stroke-width="1.28" stroke-miterlimit="10" stroke-linecap="round"/>
</g>
<g style="mix-blend-mode:overlay">
<path d="M580.802 1111.35C331.629 1018.26 184.261 723.08 -78.3647 815.459" stroke="#DBDBDB" stroke-width="1.39" stroke-miterlimit="10" stroke-linecap="round"/>
</g>
<g style="mix-blend-mode:overlay">
<path d="M575.598 1120.57C329.625 1025.1 168.052 737.971 -88.3679 833.443" stroke="#DBDBDB" stroke-width="1.51" stroke-miterlimit="10" stroke-linecap="round"/>
</g>
<g style="mix-blend-mode:overlay">
<path d="M570.336 1129.79C327.485 1031.92 151.804 752.861 -98.4675 851.446" stroke="#DBDBDB" stroke-width="1.63" stroke-miterlimit="10" stroke-linecap="round"/>
</g>
<g style="mix-blend-mode:overlay">
<path d="M565.074 1139.02C325.519 1038.68 135.575 767.771 -108.49 869.449" stroke="#DBDBDB" stroke-width="1.75" stroke-miterlimit="10" stroke-linecap="round"/>
</g>
<g style="mix-blend-mode:overlay">
<path d="M559.812 1148.2C323.457 1045.56 119.327 782.623 -118.628 887.414" stroke="#DBDBDB" stroke-width="1.87" stroke-miterlimit="10" stroke-linecap="round"/>
</g>
<g style="mix-blend-mode:overlay">
<path d="M554.531 1157.46C321.317 1052.44 103.06 797.552 -128.612 905.456" stroke="#DBDBDB" stroke-width="1.99" stroke-miterlimit="10" stroke-linecap="round"/>
</g>
<g style="mix-blend-mode:overlay">
<path d="M549.27 1166.66C319.333 1059.28 86.8125 812.462 -138.653 923.401" stroke="#DBDBDB" stroke-width="2.11" stroke-miterlimit="10" stroke-linecap="round"/>
</g>
<g style="mix-blend-mode:overlay">
<path d="M544.008 1175.89C317.27 1066.12 70.5643 827.333 -148.715 941.481" stroke="#DBDBDB" stroke-width="2.22" stroke-miterlimit="10" stroke-linecap="round"/>
</g>
<g style="mix-blend-mode:overlay">
<path d="M538.746 1185.11C315.169 1072.96 54.3165 842.242 -158.775 959.484" stroke="#DBDBDB" stroke-width="2.34" stroke-miterlimit="10" stroke-linecap="round"/>
</g>
<g style="mix-blend-mode:overlay">
<path d="M533.484 1194.31C313.165 1079.76 38.1457 857.114 -168.836 977.468" stroke="#DBDBDB" stroke-width="2.46" stroke-miterlimit="10" stroke-linecap="round"/>
</g>
<g style="mix-blend-mode:overlay">
<path d="M528.222 1203.56C311.102 1086.72 21.8592 872.043 -178.897 995.491" stroke="#DBDBDB" stroke-width="2.58" stroke-miterlimit="10" stroke-linecap="round"/>
</g>
<g style="mix-blend-mode:overlay">
<path d="M522.98 1212.78C309.04 1093.46 5.57276 886.895 -188.939 1013.49" stroke="#DBDBDB" stroke-width="2.7" stroke-miterlimit="10" stroke-linecap="round"/>
</g>
</g>
<g style="mix-blend-mode:overlay">
<g style="mix-blend-mode:overlay">
<path d="M891 481.499C891 516.55 878.486 550.516 855.59 577.61C832.694 604.704 800.833 623.251 765.435 630.089C730.037 636.927 693.292 631.634 661.463 615.111C629.633 598.589 604.687 571.859 590.875 539.477C577.063 507.095 575.241 471.063 585.717 437.522C596.194 403.981 618.322 375.006 648.331 355.533C678.34 336.06 714.373 327.294 750.29 330.73C786.208 334.165 819.788 349.589 845.308 374.373C859.808 388.431 871.308 405.13 879.149 423.513C886.99 441.897 891.017 461.602 891 481.499V481.499Z" stroke="#DBDBDB" stroke-width="3" stroke-miterlimit="10" stroke-linecap="round"/>
</g>
<g style="mix-blend-mode:overlay">
<path d="M903.331 481.487C904.275 533.076 878.159 575.135 837.607 605.742C807.424 628.491 776.22 649.107 735.185 649.107C691.549 649.107 655.739 628.183 624.457 603.11C585.639 571.984 565.845 530.617 568.447 481.949C570.741 439.102 585.794 406.67 610.31 377.523C641.148 341.017 682.992 316.365 734.704 316.365C781.134 316.365 821.243 337.5 851.658 367.877C882.072 398.254 902.406 434.76 903.331 481.487Z" stroke="#DBDBDB" stroke-width="2.91" stroke-miterlimit="10" stroke-linecap="round"/>
</g>
<g style="mix-blend-mode:overlay">
<path d="M918.48 481.488C920.408 537.668 889.569 579.804 841.886 612.947C808.176 636.388 779.92 664.209 735.186 664.209C687.618 664.209 651.98 637.541 616.806 611.987C569.662 577.709 549.655 535.036 554.724 482.41C559.408 434.011 575.926 403.365 602.639 371.605C636.272 331.698 677.807 303.761 734.222 303.761C784.835 303.761 826.737 329.066 859.965 362.132C893.193 395.199 916.63 430.149 918.48 481.488Z" stroke="#DBDBDB" stroke-width="2.82" stroke-miterlimit="10" stroke-linecap="round"/>
</g>
<g style="mix-blend-mode:overlay">
<path d="M933.61 481.487C936.462 542.241 901.018 584.53 846.184 620.152C808.985 644.342 783.621 679.388 735.185 679.388C683.705 679.388 648.106 647.109 609.154 620.94C553.587 583.627 533.542 539.532 541.001 482.948C548.113 428.996 566.057 400.156 594.968 365.745C631.376 322.533 672.68 291.234 733.74 291.234C788.535 291.234 832.326 320.631 868.252 356.426C904.179 392.221 930.834 425.518 933.61 481.487Z" stroke="#DBDBDB" stroke-width="2.73" stroke-miterlimit="10" stroke-linecap="round"/>
</g>
<g style="mix-blend-mode:overlay">
<path d="M948.759 481.488C952.614 546.814 912.505 589.295 850.462 627.377C809.833 652.354 787.302 694.394 735.186 694.394C679.773 694.394 644.174 656.581 601.483 629.74C537.416 589.391 517.487 543.893 527.278 483.332C536.915 423.77 556.189 396.775 587.336 359.769C626.519 313.272 667.573 278.573 733.258 278.573C792.236 278.573 837.877 312.1 876.54 350.624C915.203 389.147 945.078 420.888 948.759 481.488Z" stroke="#DBDBDB" stroke-width="2.64" stroke-miterlimit="10" stroke-linecap="round"/>
</g>
<g style="mix-blend-mode:overlay">
<path d="M963.909 481.488C968.65 551.406 924.05 594.118 854.761 634.582C810.701 660.328 791.003 709.515 735.263 709.515C675.919 709.515 640.3 666.207 593.908 638.636C521.284 595.482 501.567 548.332 513.633 483.812C525.794 418.736 546.398 393.508 579.761 353.871C621.72 304.069 662.504 265.988 732.854 265.988C796.014 265.988 843.505 303.627 884.905 344.898C926.306 386.169 959.264 416.277 963.909 481.488Z" stroke="#DBDBDB" stroke-width="2.54" stroke-miterlimit="10" stroke-linecap="round"/>
</g>
<g style="mix-blend-mode:overlay">
<path d="M979.058 481.488C984.84 555.998 935.595 598.96 859.059 641.806C811.568 668.379 794.703 724.598 735.186 724.598C671.91 724.598 636.234 675.833 586.16 647.493C504.979 601.534 485.531 552.751 499.832 484.177C514.577 413.587 536.453 390.127 572.032 347.876C616.748 294.769 657.3 253.326 732.295 253.326C799.638 253.326 848.979 295.077 893.116 339.057C937.253 383.037 973.488 411.646 979.058 481.488Z" stroke="#DBDBDB" stroke-width="2.45" stroke-miterlimit="10" stroke-linecap="round"/>
</g>
<g style="mix-blend-mode:overlay">
<path d="M994.188 481.488C1000.82 560.571 947.16 603.859 863.337 649.011C812.454 676.429 798.404 739.7 735.185 739.7C667.977 739.7 632.244 685.517 578.508 656.37C488.692 607.664 469.591 557.209 486.109 484.716C503.456 408.553 526.584 386.88 564.361 342.016C611.89 285.605 652.154 240.779 731.812 240.779C803.338 240.779 854.529 286.642 901.423 333.37C948.316 380.097 987.712 407.016 994.188 481.488Z" stroke="#DBDBDB" stroke-width="2.36" stroke-miterlimit="10" stroke-linecap="round"/>
</g>
<g style="mix-blend-mode:overlay">
<path d="M1009.34 481.488C1016.91 565.163 958.743 608.759 867.636 656.216C813.341 684.499 802.104 754.782 735.186 754.782C664.046 754.782 628.216 695.22 570.837 665.247C472.406 613.831 453.671 561.647 472.386 485.157C492.354 403.499 516.716 383.594 556.71 336.079C606.995 276.401 647.008 228.175 731.331 228.175C807.039 228.175 860.08 278.13 909.711 327.606C959.341 377.081 1001.92 402.404 1009.34 481.488Z" stroke="#DBDBDB" stroke-width="2.27" stroke-miterlimit="10" stroke-linecap="round"/>
</g>
<g style="mix-blend-mode:overlay">
<path d="M1024.49 481.488C1033.01 569.736 970.327 613.697 871.914 663.441C814.247 692.588 805.786 769.884 735.186 769.884C660.018 769.884 624.207 704.942 563.186 674.124C456.081 620.037 437.77 566.105 458.663 485.619C481.291 398.427 506.848 380.29 549.058 330.161C602.119 267.179 641.881 215.571 730.849 215.571C810.739 215.571 865.631 269.677 917.998 321.861C970.366 374.045 1016.14 397.774 1024.49 481.488Z" stroke="#DBDBDB" stroke-width="2.18" stroke-miterlimit="10" stroke-linecap="round"/>
</g>
<g style="mix-blend-mode:overlay">
<path d="M1039.62 481.488C1049.1 574.328 981.93 618.654 876.212 670.646C815.153 700.696 809.486 785.063 735.185 785.063C656.163 785.063 620.178 714.76 555.514 683.077C439.756 626.359 421.889 570.639 444.94 486.157C470.228 393.451 496.98 377.081 541.406 324.32C597.3 258.033 636.734 203.063 730.29 203.063C814.362 203.063 871.105 261.261 926.209 316.193C981.313 371.125 1030.35 393.105 1039.62 481.488Z" stroke="#DBDBDB" stroke-width="2.09" stroke-miterlimit="10" stroke-linecap="round"/>
</g>
<g style="mix-blend-mode:overlay">
<path d="M1054.77 481.487C1065.19 578.9 993.552 623.668 880.511 677.87C816.059 708.785 813.187 800.069 735.186 800.069C652.308 800.069 616.15 724.424 547.863 691.877C423.431 632.564 406.007 575.039 431.218 486.541C459.184 388.32 487.112 373.699 533.735 318.325C592.366 248.753 631.589 190.401 729.885 190.401C818.141 190.401 876.733 252.73 934.574 310.371C992.415 368.012 1044.57 388.532 1054.77 481.487Z" stroke="#DBDBDB" stroke-width="2" stroke-miterlimit="10" stroke-linecap="round"/>
</g>
<g style="mix-blend-mode:overlay">
<path d="M1069.92 481.488C1081.29 583.493 1005.15 628.626 884.886 685.152C817.061 716.97 816.984 815.248 735.282 815.248C648.434 815.248 612.238 734.262 540.288 700.831C407.183 638.943 390.241 579.573 417.591 487.079C448.255 383.325 477.34 370.471 526.18 312.485C587.586 239.607 626.558 177.855 729.5 177.855C822.014 177.855 882.38 244.295 942.958 304.665C1003.54 365.034 1058.79 383.902 1069.92 481.488Z" stroke="#DBDBDB" stroke-width="1.91" stroke-miterlimit="10" stroke-linecap="round"/>
</g>
<g style="mix-blend-mode:overlay">
<path d="M1085.05 481.488C1097.34 588.085 1016.76 633.641 889.184 692.319C817.871 724.982 820.665 830.292 735.282 830.292C644.502 830.292 608.19 743.984 532.636 709.65C390.838 645.207 374.379 583.992 403.868 487.482C437.231 378.253 467.471 367.128 518.528 306.509C582.71 230.327 621.412 165.212 729.018 165.212C825.638 165.212 887.931 235.745 951.246 298.862C1014.56 361.979 1073 379.271 1085.05 481.488Z" stroke="#DBDBDB" stroke-width="1.81" stroke-miterlimit="10" stroke-linecap="round"/>
</g>
<g style="mix-blend-mode:overlay">
<path d="M1100.19 481.488C1113.45 592.658 1028.38 638.636 893.385 699.505C818.776 733.186 824.269 845.394 735.185 845.394C640.474 845.394 604.123 753.764 524.869 718.584C374.378 651.605 358.42 588.527 389.952 488.02C426.013 373.296 457.41 363.9 510.664 300.668C577.641 221.181 616.092 152.723 728.343 152.723C829.145 152.723 893.289 227.387 959.34 293.232C1025.39 359.077 1087.22 374.66 1100.19 481.488Z" stroke="#DBDBDB" stroke-width="1.72" stroke-miterlimit="10" stroke-linecap="round"/>
</g>
<g style="mix-blend-mode:overlay">
<path d="M1115.34 481.488C1129.55 597.23 1040 643.67 897.665 706.71C819.683 741.294 827.97 860.419 735.186 860.419C636.542 860.476 600.076 763.544 517.198 727.422C358.015 657.926 342.558 592.927 376.287 488.424C415.085 368.204 447.6 360.557 503.09 294.693C572.842 211.901 611.023 140.023 727.939 140.023C832.924 140.023 898.917 218.799 967.706 287.372C1036.49 355.946 1101.43 370.049 1115.34 481.488Z" stroke="#DBDBDB" stroke-width="1.63" stroke-miterlimit="10" stroke-linecap="round"/>
</g>
<g style="mix-blend-mode:overlay">
<path d="M1130.49 481.488C1145.64 601.823 1051.62 648.646 901.962 713.973C820.588 749.441 831.67 875.598 735.185 875.598C632.629 875.598 596.009 773.362 509.565 736.299C341.671 664.305 326.733 597.461 362.602 488.885C404.118 363.17 437.77 357.252 495.457 288.756C567.965 202.698 605.896 127.361 727.476 127.361C836.643 127.361 904.487 210.249 976.109 281.551C1047.73 352.852 1115.65 365.399 1130.49 481.488Z" stroke="#DBDBDB" stroke-width="1.54" stroke-miterlimit="10" stroke-linecap="round"/>
</g>
<g style="mix-blend-mode:overlay">
<path d="M1145.62 481.488C1161.74 606.376 1063.25 653.738 906.241 721.139C821.436 757.53 835.371 890.661 735.186 890.661C628.697 890.661 591.981 783.065 501.972 745.137C325.384 670.665 310.968 601.919 348.937 489.307C393.267 358.098 427.96 353.928 487.882 282.799C563.166 193.437 600.847 114.795 727.071 114.795C840.421 114.795 910.173 201.795 984.397 275.844C1058.62 349.893 1129.86 360.788 1145.62 481.488Z" stroke="#DBDBDB" stroke-width="1.45" stroke-miterlimit="10" stroke-linecap="round"/>
</g>
<g style="mix-blend-mode:overlay">
<path d="M1160.77 481.488C1177.83 610.987 1074.87 658.791 910.539 728.363C822.4 765.676 839.053 905.744 735.147 905.744C624.727 905.744 587.914 792.921 494.224 753.956C309.04 677.082 295.048 606.376 335.137 489.788C382.127 353.102 418.015 350.643 480.154 276.901C558.213 184.233 595.624 102.23 726.512 102.23C844.083 102.23 915.589 193.322 992.608 270.099C1069.63 346.877 1144.08 356.157 1160.77 481.488Z" stroke="#DBDBDB" stroke-width="1.36" stroke-miterlimit="10" stroke-linecap="round"/>
</g>
<g style="mix-blend-mode:overlay">
<path d="M1175.92 481.488C1193.92 615.56 1086.49 663.844 914.837 735.569C823.325 773.804 842.753 920.846 735.185 920.846C620.834 920.846 583.924 802.72 486.553 762.871C292.561 683.481 279.185 610.891 321.395 490.23C371.141 348.049 408.127 347.338 472.463 270.964C553.317 174.992 590.458 89.6064 726.011 89.6064C847.726 89.6064 921.12 184.829 1000.88 264.335C1080.63 343.841 1158.3 351.527 1175.92 481.488Z" stroke="#DBDBDB" stroke-width="1.27" stroke-miterlimit="10" stroke-linecap="round"/>
</g>
<g style="mix-blend-mode:overlay">
<path d="M1191.07 481.488C1210.02 620.133 1098.11 668.917 919.116 742.793C824.231 781.95 846.454 935.948 735.185 935.948C616.902 935.948 579.896 812.519 478.843 771.748C276.274 689.917 263.38 615.407 307.691 490.691C360.174 343.053 398.278 344.052 464.831 265.065C548.46 165.808 585.35 77.0215 725.549 77.0215C851.445 77.0215 926.691 176.356 1009.18 258.59C1091.68 340.825 1172.51 346.992 1191.07 481.488Z" stroke="#DBDBDB" stroke-width="1.18" stroke-miterlimit="10" stroke-linecap="round"/>
</g>
<g style="mix-blend-mode:overlay">
<path d="M1206.2 481.488C1226.11 624.725 1109.83 673.97 923.414 749.998C825.118 790.097 850.174 951.05 735.186 951.05C612.97 951.05 575.868 822.318 471.249 780.625C259.834 696.354 247.537 619.826 293.968 491.094C349.188 337.981 388.41 340.69 457.179 259.09C543.584 156.527 580.204 64.3789 725.086 64.3789C855.165 64.3789 932.261 167.825 1017.51 252.788C1102.76 337.75 1186.73 342.285 1206.2 481.488Z" stroke="#DBDBDB" stroke-width="1.08" stroke-miterlimit="10" stroke-linecap="round"/>
</g>
<g style="mix-blend-mode:overlay">
<path d="M1221.35 481.488C1242.2 629.298 1121.38 679.042 927.712 757.203C826.042 798.244 853.855 966.132 735.185 966.132C609.038 966.132 571.839 832.156 463.597 789.501C243.509 702.809 231.713 624.399 280.245 491.613C338.221 333.043 378.542 337.462 449.527 253.23C538.707 147.363 575.019 51.8325 724.585 51.8325C858.846 51.8325 937.792 159.429 1025.78 247.101C1113.76 334.772 1200.94 337.674 1221.35 481.488Z" stroke="#DBDBDB" stroke-width="0.99" stroke-miterlimit="10" stroke-linecap="round"/>
</g>
<g style="mix-blend-mode:overlay">
<path d="M1236.5 481.488C1258.28 633.89 1133 684.115 931.972 764.428C826.929 806.39 857.517 981.234 735.166 981.234C605.106 981.234 567.792 841.974 455.907 798.378C227.068 709.227 215.87 628.875 266.503 492.055C327.235 328.009 368.654 334.138 441.895 247.273C533.87 138.121 569.97 39.209 724.142 39.209C862.586 39.209 943.382 150.879 1034.1 241.317C1124.83 331.756 1215.16 333.043 1236.5 481.488Z" stroke="#DBDBDB" stroke-width="0.9" stroke-miterlimit="10" stroke-linecap="round"/>
</g>
<g style="mix-blend-mode:overlay">
<path d="M1251.63 481.488C1274.37 638.463 1144.64 689.206 936.289 771.613C827.874 814.556 861.237 996.413 735.186 996.413C601.194 996.413 563.783 851.869 448.275 807.332C210.743 715.702 200.066 633.41 252.799 492.535C316.287 323.014 358.805 330.872 434.205 241.375C528.955 128.937 564.785 26.6433 723.621 26.6433C866.248 26.6433 948.894 142.425 1042.35 235.592C1135.81 328.758 1229.39 328.413 1251.63 481.488Z" stroke="#DBDBDB" stroke-width="0.81" stroke-miterlimit="10" stroke-linecap="round"/>
</g>
<g style="mix-blend-mode:overlay">
<path d="M1266.78 481.488C1290.47 643.074 1156.42 694.759 940.587 778.876C828.799 822.895 864.937 1011.36 735.186 1011.36C597.262 1011.36 559.793 861.495 440.604 816.074C194.341 722.177 184.473 638.002 239.076 493.016C305.629 318.172 348.937 327.586 426.553 235.553C524.079 119.81 559.658 14.1353 723.159 14.1353C869.948 14.1353 954.445 134.028 1050.64 229.924C1146.84 325.819 1243.59 323.801 1266.78 481.488Z" stroke="#DBDBDB" stroke-width="0.72" stroke-miterlimit="10" stroke-linecap="round"/>
</g>
<g style="mix-blend-mode:overlay">
<path d="M1281.93 481.488C1306.56 647.628 1168 699.62 944.866 786.062C829.743 830.984 868.638 1026.54 735.186 1026.54C593.33 1026.54 555.65 871.659 432.952 825.027C177.805 729.074 168.572 642.498 225.353 493.458C294.546 313.08 339.069 324.282 418.882 229.539C519.106 110.415 554.512 1.43506 722.677 1.43506C873.649 1.43506 959.996 125.459 1058.93 224.083C1157.86 322.706 1257.82 319.171 1281.93 481.488Z" stroke="#DBDBDB" stroke-width="0.63" stroke-miterlimit="10" stroke-linecap="round"/>
</g>
<g style="mix-blend-mode:overlay">
<path d="M1297.08 481.488C1322.65 652.22 1179.51 704.577 949.164 793.267C830.611 839.053 872.319 1041.62 735.224 1041.62C589.437 1041.62 551.698 881.342 425.339 833.885C161.557 735.319 152.71 646.917 211.669 493.9C283.541 308.027 329.239 320.977 411.269 223.602C514.307 101.269 549.366 -11.1499 722.195 -11.1499C877.35 -11.1499 965.547 116.967 1067.2 218.318C1168.85 319.67 1272.04 314.54 1297.08 481.488Z" stroke="#DBDBDB" stroke-width="0.54" stroke-miterlimit="10" stroke-linecap="round"/>
</g>
<g style="mix-blend-mode:overlay">
<path d="M1312.21 481.487C1338.75 656.793 1191.17 709.553 953.443 800.434C831.497 847.161 876.02 1056.74 735.186 1056.74C585.466 1056.74 547.67 891.084 417.629 842.78C145.231 741.582 136.751 651.413 197.907 494.38C272.439 302.993 319.332 317.614 403.578 217.704C509.488 92.0656 544.181 -23.8311 721.713 -23.8311C881.05 -23.8311 971.098 108.397 1075.52 212.497C1179.95 316.596 1286.23 309.929 1312.21 481.487Z" stroke="#DBDBDB" stroke-width="0.45" stroke-miterlimit="10" stroke-linecap="round"/>
</g>
</g>
</g>
</svg>
