<svg width="599" height="559" viewBox="0 0 599 559" fill="none" xmlns="http://www.w3.org/2000/svg">
<g id="first-circle">
<path d="M274.791 358.234C266.04 358.234 259.078 355.785 254.271 350.868C242.461 338.789 245.004 312.739 261.256 279.392C292.966 214.318 367.379 138.814 427.128 111.063C454.413 98.3973 475.2 97.3525 485.741 108.108C497.545 120.187 495.008 146.238 478.75 179.584C447.04 244.658 372.627 320.163 312.878 347.914C298.068 354.787 285.164 358.234 274.791 358.234ZM427.406 111.695L427.689 112.276C368.173 139.922 294.055 215.143 262.46 279.984C246.475 312.785 243.834 338.279 255.221 349.928C265.31 360.243 285.581 359.099 312.311 346.695C371.822 319.077 445.945 243.851 477.54 179.016C493.525 146.215 496.16 120.721 484.774 109.072C474.69 98.7514 454.413 99.9007 427.689 112.305L427.406 111.695Z" fill="#B51019"/>
<path d="M268.501 359.993C258.267 359.993 250.326 357.044 245.183 351.165C233.148 337.402 237.567 309.007 257.311 273.251C294.559 205.803 375.25 131.117 437.188 106.762C464.41 96.0639 484.861 96.447 494.817 107.835C506.852 121.598 502.41 149.993 482.683 185.743C445.436 253.191 364.744 327.877 302.812 352.233C289.659 357.41 278.075 359.993 268.501 359.993ZM471.505 100.336C462.116 100.336 450.7 102.896 437.675 108.015C375.992 132.272 295.607 206.691 258.487 273.901C239.032 309.129 234.549 336.967 246.191 350.276C255.748 361.206 275.683 361.456 302.32 350.985C364.008 326.728 444.393 252.309 481.507 185.093C500.962 149.866 505.445 122.033 493.809 108.723C488.921 103.134 481.322 100.336 471.505 100.336Z" fill="#B51019"/>
<path d="M262.744 361.328C250.697 361.328 241.558 357.77 236.061 350.718C223.898 335.086 230.391 304.282 253.923 266.228C296.893 196.737 383.77 123.525 447.59 103.035C474.545 94.3807 494.556 96.244 503.933 108.259C516.096 123.896 509.609 154.695 486.071 192.749C443.101 262.263 356.224 335.498 292.404 355.959C281.243 359.546 271.264 361.328 262.744 361.328ZM477.273 99.0069C468.898 99.0069 459.058 100.748 448.001 104.318C384.442 124.726 297.889 197.677 255.064 266.942C231.845 304.491 225.306 334.726 237.11 349.893C246.116 361.45 265.605 363.151 291.987 354.682C355.547 334.274 442.094 261.323 484.918 192.058C508.138 154.503 514.683 124.268 502.873 109.107C497.643 102.391 488.874 99.0069 477.273 99.0069Z" fill="#B51019"/>
<path d="M257.352 362.35C243.197 362.35 232.864 358.02 226.962 349.464C214.742 331.743 223.557 298.518 251.155 258.334C300.003 187.165 392.921 116.124 458.282 100.011C485.208 93.3649 504.142 96.6676 513.032 109.559C525.259 127.28 516.438 160.505 488.84 200.689C439.991 271.858 347.079 342.882 281.741 359.006C272.666 361.241 264.522 362.35 257.352 362.35ZM482.654 97.9852C475.605 97.9852 467.56 99.0823 458.6 101.294C393.524 117.361 300.947 188.134 252.261 259.071C224.982 298.797 216.178 331.435 228.069 348.698C236.617 361.09 255.058 364.201 281.394 357.7C346.482 341.639 439.047 270.86 487.733 199.929C515.001 160.203 523.84 127.536 511.932 110.285C506.29 102.124 496.34 97.9852 482.654 97.9852Z" fill="#B51019"/>
<path d="M253.135 362.907C236.189 362.907 224.176 357.631 217.927 347.305C205.822 327.262 217.174 291.582 249.087 249.47C303.936 177.048 402.68 108.967 469.176 97.7066L469.286 98.3683L469.176 97.7066C495.535 93.2429 513.82 98.0781 522.044 111.69C534.155 131.732 522.797 167.412 490.89 209.53C436.064 281.952 337.343 350.009 270.8 361.293C264.967 362.323 259.058 362.862 253.135 362.907ZM486.876 97.4338C481.015 97.4776 475.168 98.0116 469.396 99.03C403.19 110.244 304.827 178.093 250.153 250.283C219.062 291.344 207.444 327.349 219.08 346.637C226.991 359.743 244.801 364.358 270.575 359.987C336.81 348.756 435.172 280.901 489.841 208.711C520.944 167.656 532.556 131.645 520.944 112.386C514.937 102.489 503.313 97.4338 486.876 97.4338Z" fill="#B51019"/>
<path d="M250.112 363.168C229.655 363.168 215.547 356.685 209.025 344.164C197.407 321.875 211.921 282.823 247.79 239.684C308.731 166.49 413.025 102.159 480.279 96.2671C505.943 94.0207 523.475 100.44 530.975 114.841C542.559 137.131 528.079 176.177 492.205 219.322C431.269 292.505 326.975 356.853 259.732 362.733C256.385 363.023 253.178 363.168 250.112 363.168ZM480.337 96.9346L480.395 97.6079C413.447 103.459 309.542 167.592 248.821 240.566C213.288 283.258 198.854 321.747 210.212 343.543C217.44 357.41 234.538 363.586 259.599 361.392C326.553 355.541 430.458 291.408 491.174 218.428C526.706 175.742 541.14 137.247 529.788 115.457C522.56 101.584 505.462 95.4138 480.395 97.6079L480.337 96.9346Z" fill="#B51019"/>
<path d="M248.583 363.238H248.554C223.69 363.238 207.004 355.17 200.308 339.921C189.304 314.829 206.865 273.367 247.349 229.009C314.413 155.56 423.89 95.7737 491.405 95.7737H491.44C516.304 95.7737 532.985 103.842 539.686 119.084C550.69 144.183 533.124 185.644 492.645 230.002C425.587 303.469 316.104 363.238 248.583 363.238ZM491.405 97.1029C424.22 97.1029 315.183 156.674 248.334 229.915C208.22 273.866 190.723 314.788 201.53 339.381C208 354.102 224.257 361.885 248.548 361.891H248.577C315.762 361.891 424.805 302.326 491.654 229.079C531.763 185.128 549.26 144.206 538.458 119.618C531.988 104.898 515.731 97.1145 491.44 97.1029H491.405Z" fill="#B51019"/>
<path d="M248.658 363.244C244.766 363.244 241.005 363.071 237.376 362.727C213.398 360.457 197.661 350.66 191.858 334.454C181.769 306.29 202.7 262.525 247.836 217.389C321.05 144.171 435.346 89.8474 502.618 96.2729C526.596 98.5657 542.339 108.34 548.142 124.541C558.226 152.71 537.3 196.47 492.158 241.611C422.894 310.876 316.857 363.238 248.658 363.244ZM491.289 97.0972C423.432 97.0972 317.824 149.297 248.786 218.341C204.021 263.099 183.217 306.342 193.126 334.001C198.739 349.673 214.087 359.146 237.509 361.386C304.422 367.771 418.249 313.627 491.191 240.653C536.002 195.895 556.783 152.658 546.879 124.999C541.261 109.327 525.913 99.8543 502.491 97.6138C498.888 97.2655 495.147 97.0972 491.289 97.0972Z" fill="#B51019"/>
<path d="M250.61 363.36C242.448 363.42 234.3 362.671 226.284 361.125C203.25 356.481 188.545 344.907 183.767 327.616C175.079 296.138 199.573 250.248 249.336 204.869C328.655 132.516 447.248 84.5363 513.709 97.8924C536.749 102.536 551.455 114.104 556.233 131.402C564.921 162.879 540.421 208.769 490.664 254.149C420.293 318.329 318.988 363.36 250.61 363.36ZM489.303 96.9927C421.278 96.9927 320.384 141.867 250.239 205.844C200.858 250.875 176.492 296.26 185.058 327.239C189.692 344.013 204.044 355.268 226.551 359.79C234.508 361.32 242.595 362.061 250.697 362.001C318.716 362.001 419.61 317.133 489.76 253.156C539.135 208.119 563.502 162.74 554.941 131.761C550.308 114.992 535.956 103.737 513.449 99.2158C505.492 97.6822 497.405 96.9376 489.303 96.9927Z" fill="#B51019"/>
<path d="M254.774 363.731C240.191 363.731 226.887 361.99 215.39 358.304C193.323 351.257 179.759 337.721 176.162 319.165C169.38 284.169 197.696 236.416 251.919 191.414C337.221 120.617 459.55 79.9159 524.621 100.696C546.694 107.743 560.258 121.273 563.849 139.835C570.626 174.825 542.298 222.584 488.081 267.586C417.849 325.851 322.579 363.731 254.774 363.731ZM485.127 96.5922C417.675 96.5922 322.759 134.368 252.77 192.453C198.918 237.13 170.787 284.419 177.488 318.909C180.963 336.955 194.233 350.131 215.801 357.021C280.461 377.674 402.211 337.089 487.223 266.547C541.087 221.853 569.213 174.593 562.517 140.091C559.042 122.045 545.773 108.863 524.198 101.979C512.794 98.3277 499.589 96.5922 485.127 96.5922Z" fill="#B51019"/>
<path d="M261.424 364.666C239.693 364.666 220.302 361.317 204.739 354.218C183.651 344.623 171.349 328.951 169.166 308.908C164.949 270.297 197.285 221.028 255.678 177.112C346.801 108.544 472.229 76.0908 535.255 104.771C556.343 114.348 568.651 130.02 570.834 150.08C575.045 188.697 542.709 237.983 484.339 281.882C415.712 333.513 327.647 364.666 261.424 364.666ZM478.495 95.646C412.637 95.646 324.879 126.717 256.46 178.197C198.472 221.812 166.339 270.628 170.498 308.798C172.629 328.347 184.665 343.625 205.295 353.034C267.922 381.534 392.742 349.145 483.534 280.838C541.522 237.211 573.661 188.396 569.502 150.237C567.371 130.688 555.335 115.41 534.699 106.007C519.264 98.972 500.047 95.646 478.495 95.646Z" fill="#B51019"/>
<path d="M270.673 366.442C240.451 366.442 213.965 360.765 194.499 348.808C174.396 336.456 163.513 318.404 163.009 296.608C162.082 254.375 198.565 204.056 260.624 161.985C357.4 96.3949 485.191 73.177 545.495 110.192C565.599 122.544 576.487 140.596 576.974 162.397C577.918 204.619 541.429 254.944 479.37 297.015C413.835 341.442 334.065 366.442 270.673 366.442ZM469.281 93.8641C406.202 93.8641 326.721 118.823 261.354 163.1C199.7 204.898 163.432 254.816 164.364 296.568C164.845 317.893 175.508 335.556 195.2 347.647C255.099 384.453 382.241 361.235 478.617 295.9C540.3 254.108 576.562 204.19 575.63 162.426C575.155 141.107 564.492 123.438 544.794 111.347C525.508 99.4886 499.247 93.8641 469.281 93.8641Z" fill="#B51019"/>
<path d="M282.384 369.362C242.42 369.362 207.704 360.452 184.774 341.959C165.661 326.559 156.395 305.803 158.01 281.929C161.063 236.306 201.768 185.517 266.897 146.069C369.024 84.2112 498.367 71.1918 555.231 117.047C574.344 132.452 583.611 153.209 581.989 177.083C578.937 222.706 538.238 273.495 473.103 312.942C412.161 349.841 341.524 369.362 282.384 369.362ZM457.621 90.9386C398.753 90.9386 328.36 110.413 267.586 147.242C202.833 186.439 162.372 236.822 159.354 282.016C157.796 305.431 166.866 325.799 185.597 340.914C242.056 386.432 370.709 373.367 472.391 311.775C537.161 272.555 577.622 222.166 580.646 176.978C582.209 153.563 573.116 133.201 554.385 118.086C531.67 99.7672 497.255 90.9386 457.621 90.9386Z" fill="#B51019"/>
<path d="M296.041 373.756C245.293 373.756 201.322 360.434 175.676 333.629C157.634 314.771 150.307 290.908 154.489 264.632C162.221 216.037 207.09 165.497 274.519 129.44C381.668 72.1496 511.654 70.327 564.319 125.377C582.36 144.235 589.687 168.092 585.505 194.369C577.773 242.969 532.904 293.509 465.475 329.572C410.511 358.96 349.506 373.756 296.041 373.756ZM444.005 86.5505C390.755 86.5505 329.964 101.305 275.15 130.624C208.092 166.484 163.484 216.658 155.839 264.846C151.726 290.688 158.931 314.184 176.689 332.695C228.926 387.344 358.193 385.417 464.844 328.376C531.902 292.545 576.545 242.337 584.185 194.154C588.297 168.306 581.092 144.816 563.334 126.299C537.948 99.744 494.348 86.5505 444.005 86.5505Z" fill="#B51019"/>
<path d="M310.781 379.879C248.618 379.879 194.597 360.672 167.341 323.744C150.493 300.909 145.494 273.501 152.862 244.49C165.835 193.591 214.689 144.113 283.543 112.148C395.29 60.2735 524.998 70.6403 572.653 135.244C589.507 158.079 594.506 185.488 587.133 214.498C574.159 265.398 525.311 314.869 456.452 346.84C408.582 369.077 357.382 379.879 310.781 379.879ZM429.288 80.4325C382.872 80.4325 331.869 91.1998 284.133 113.367C215.639 145.17 167.063 194.31 154.188 244.821C146.896 273.431 151.819 300.445 168.424 322.943C215.749 387.077 344.693 397.24 455.867 345.633C524.361 313.83 572.937 264.684 585.812 214.185C593.104 185.58 588.181 158.566 571.576 136.063C544.568 99.4595 490.982 80.4325 429.288 80.4325Z" fill="#B51019"/>
<path d="M325.516 387.953C251.769 387.953 187.335 361.038 159.905 312.28C144.475 284.808 142.321 253.377 153.684 221.371C172.276 169.078 224.732 121.569 294.084 94.282C409.92 48.7111 538.209 72.2251 580.09 146.743C595.525 174.192 597.674 205.618 586.31 237.629C567.747 289.922 515.262 337.431 445.911 364.747C405.912 380.454 364.414 387.948 325.516 387.953ZM414.554 72.3702C375.801 72.3702 334.453 79.8463 294.576 95.5358C225.561 122.677 173.382 169.891 154.947 221.818C143.722 253.452 145.836 284.506 161.075 311.596C202.642 385.533 330.196 408.797 445.453 363.464C514.445 336.317 566.641 289.109 585.077 237.176C596.307 205.548 594.187 174.488 578.949 147.399C551.739 99.0533 487.785 72.3702 414.554 72.3702Z" fill="#B51019"/>
<path d="M339.173 398.082C254.033 398.082 179.377 361.264 153.499 299.122C139.842 266.326 141.185 230.437 157.374 195.28C181.607 142.691 237.208 98.0956 306.119 75.9341C425.471 37.584 551.252 75.2376 586.496 159.878C600.153 192.674 598.815 228.58 582.621 263.72C558.394 316.309 502.786 360.922 433.881 383.06C403.275 392.937 371.327 398.005 339.173 398.082ZM400.879 62.253C368.846 62.3204 337.017 67.3624 306.525 77.1995C237.973 99.2565 182.666 143.591 158.59 195.843C142.564 230.629 141.214 266.164 154.738 298.582C180.384 360.243 254.56 396.741 339.115 396.747C371.155 396.676 402.99 391.628 433.487 381.783C502.045 359.726 557.345 315.409 581.422 263.151C597.454 228.365 598.797 192.836 585.273 160.412C559.592 98.7573 485.434 62.253 400.879 62.253Z" fill="#B51019"/>
<path d="M350.896 410.301C254.838 410.301 170.706 361.137 148.263 284.303C136.888 245.355 142.465 204.584 164.399 166.391C194.516 113.948 251.12 74.1521 319.701 57.2147C441.96 27.0315 563.988 79.7186 591.731 174.697C603.106 213.639 597.523 254.41 575.601 292.603C545.483 345.047 488.88 384.842 420.293 401.785C397.587 407.416 374.286 410.275 350.896 410.301ZM389.122 50.0404C365.832 50.0641 342.632 52.9116 320.025 58.5207C251.792 75.3537 195.501 114.934 165.563 167.064C143.821 204.933 138.284 245.338 149.554 283.926C171.824 360.173 255.417 408.954 350.867 408.96C374.158 408.943 397.362 406.105 419.975 400.508C488.202 383.675 544.499 344.089 574.437 291.965C596.179 254.096 601.716 213.686 590.445 175.103C568.17 98.827 484.577 50.0404 389.133 50.0404H389.122Z" fill="#B51019"/>
<path d="M360.11 424.579C253.622 424.579 161.352 360.376 144.342 267.766C136.025 222.491 146.948 175.376 175.096 135.064C210.201 84.7859 268.42 49.4889 334.87 38.2282C459.295 17.129 576.284 85.7726 595.658 191.234C603.969 236.509 593.046 283.624 564.898 323.936C529.793 374.214 471.557 409.505 405.107 420.772C390.241 423.298 375.189 424.572 360.11 424.579ZM379.895 35.7613C364.881 35.7679 349.893 37.0358 335.09 39.5516C268.999 50.7543 211.081 85.8481 176.197 135.825C148.257 175.875 137.409 222.619 145.662 267.522C162.557 359.477 254.259 423.233 360.105 423.239C375.118 423.23 390.103 421.961 404.904 419.443C470.983 408.24 528.896 373.146 563.803 323.164C591.749 283.148 602.608 236.381 594.343 191.478C577.443 99.5176 485.735 35.7613 379.895 35.7613Z" fill="#B51019"/>
<path d="M366.516 440.849C250.002 440.855 151.425 358.751 141.869 249.499C131.733 133.503 225.844 30.1368 351.631 19.1083C412.555 13.7682 471.748 30.6244 518.303 66.5715C564.857 102.519 593.22 153.29 598.125 209.495C603.031 265.7 583.906 320.627 544.261 364.143C504.616 407.659 449.276 434.546 388.346 439.886C381.031 440.559 373.733 440.844 366.516 440.849ZM373.715 19.4856C366.429 19.4856 359.107 19.8068 351.747 20.4492C226.719 31.4138 133.146 134.112 143.207 249.383C152.682 357.927 250.709 439.497 366.522 439.503C373.704 439.503 380.946 439.185 388.247 438.551C448.835 433.234 503.898 406.487 543.288 363.238C582.679 319.989 601.664 265.444 596.816 209.617C591.969 153.789 563.803 103.395 517.509 67.6337C476.816 36.2315 426.438 19.4856 373.715 19.4856Z" fill="#B51019"/>
<path d="M369.997 459C243.73 459 141 356.046 141 229.497C141 102.948 243.73 0 369.997 0C496.265 0 599 102.954 599 229.497C599 356.04 496.27 459 369.997 459ZM369.997 1.34664C244.471 1.34664 142.344 103.697 142.344 229.497C142.344 355.297 244.471 457.653 369.997 457.653C495.523 457.653 597.656 355.303 597.656 229.497C597.656 103.691 495.529 1.34664 369.997 1.34664Z" fill="#B51019"/>
</g>
<g id="second-cirle" clip-path="url(#clip0)">
<path d="M100.546 234.791C100.546 226.04 102.99 219.078 107.896 214.271C119.949 202.461 145.942 205.004 179.216 221.256C244.149 252.966 319.489 327.379 347.179 387.128C359.817 414.413 360.86 435.2 350.127 445.741C338.075 457.545 312.081 455.008 278.807 438.75C213.875 407.04 138.535 332.627 110.844 272.878C103.986 258.068 100.546 245.164 100.546 234.791ZM346.548 387.406L345.969 387.689C318.382 328.173 243.326 254.055 178.626 222.46C145.896 206.475 120.458 203.834 108.834 215.221C98.5422 225.31 99.6832 245.581 112.06 272.311C139.618 331.822 214.68 405.945 279.374 437.54C312.104 453.525 337.542 456.16 349.166 444.774C359.464 434.69 358.317 414.413 345.94 387.689L346.548 387.406Z" fill="#B51019"/>
<path d="M98.7912 228.501C98.7912 218.267 101.733 210.326 107.601 205.183C121.333 193.148 149.667 197.567 185.344 217.311C252.645 254.559 327.169 335.25 351.471 397.188C362.145 424.41 361.763 444.861 350.4 454.817C336.667 466.852 308.334 462.41 272.662 442.683C205.361 405.436 130.837 324.744 106.535 262.812C101.369 249.659 98.7912 238.075 98.7912 228.501ZM357.883 431.505C357.883 422.116 355.328 410.7 350.22 397.675C326.016 335.992 251.759 255.607 184.696 218.487C149.545 199.032 121.767 194.549 108.487 206.191C97.5807 215.748 97.3317 235.683 107.78 262.32C131.984 324.008 206.241 404.393 273.31 441.507C308.461 460.962 336.233 465.445 349.513 453.809C355.091 448.921 357.883 441.322 357.883 431.505Z" fill="#B51019"/>
<path d="M97.4591 222.744C97.4591 210.697 101.01 201.558 108.047 196.061C123.644 183.898 154.381 190.391 192.352 213.923C261.692 256.893 334.744 343.77 355.189 407.59C363.825 434.545 361.966 454.556 349.977 463.933C334.374 476.096 303.642 469.609 265.671 446.071C196.308 403.101 123.233 316.224 102.817 252.404C99.2372 241.243 97.4591 231.264 97.4591 222.744ZM359.209 437.273C359.209 428.898 357.471 419.058 353.909 408.001C333.545 344.442 260.754 257.889 191.64 215.064C154.173 191.845 124.003 185.306 108.869 197.11C97.3375 206.116 95.6405 225.605 104.091 251.987C124.455 315.546 197.246 402.094 266.36 444.918C303.833 468.138 334.003 474.683 349.131 462.873C355.832 457.643 359.209 448.874 359.209 437.273Z" fill="#B51019"/>
<path d="M96.4396 217.352C96.4396 203.197 100.76 192.864 109.297 186.962C126.98 174.741 160.132 183.557 200.229 211.155C271.243 260.003 342.129 352.921 358.207 418.282C364.839 445.208 361.543 464.141 348.679 473.032C330.997 485.258 297.844 476.437 257.748 448.839C186.734 399.991 115.865 307.079 99.7757 241.741C97.5459 232.665 96.4396 224.522 96.4396 217.352ZM360.228 442.654C360.228 435.605 359.134 427.56 356.927 418.6C340.895 353.523 270.275 260.947 199.494 212.261C159.854 184.981 127.287 176.178 110.062 188.068C97.6965 196.617 94.592 215.058 101.079 241.394C117.105 306.482 187.73 399.047 258.506 447.733C298.146 475.001 330.742 483.839 347.955 471.931C356.099 466.29 360.228 456.34 360.228 442.654Z" fill="#B51019"/>
<path d="M95.8836 213.135C95.8836 196.189 101.148 184.176 111.452 177.927C131.451 165.822 167.053 177.174 209.073 209.087C281.338 263.935 349.27 362.68 360.506 429.176L359.846 429.286L360.506 429.176C364.96 455.535 360.135 473.82 346.554 482.044C326.554 494.155 290.952 482.797 248.927 450.89C176.662 396.064 108.753 297.343 97.4937 230.8C96.4667 224.967 95.9281 219.058 95.8836 213.135ZM360.778 446.876C360.735 441.015 360.202 435.168 359.186 429.396C347.996 363.19 280.295 264.827 208.262 210.153C167.291 179.062 131.364 167.444 112.118 179.079C99.0401 186.991 94.4356 204.801 98.7968 230.575C110.004 296.81 177.71 395.172 249.743 449.841C290.709 480.944 326.641 492.556 345.859 480.944C355.734 474.937 360.778 463.313 360.778 446.876Z" fill="#B51019"/>
<path d="M95.623 210.112C95.623 189.656 102.093 175.547 114.585 169.025C136.826 157.407 175.793 171.921 218.838 207.79C291.873 268.731 356.064 373.025 361.943 440.279C364.184 465.943 357.778 483.475 343.409 490.975C321.168 502.559 282.207 488.079 239.156 452.205C166.133 391.269 101.925 286.976 96.0574 219.732C95.7679 216.385 95.623 213.178 95.623 210.112ZM361.277 440.337L360.605 440.395C354.767 373.447 290.773 269.542 217.958 208.821C175.359 173.288 136.954 158.855 115.205 170.212C101.369 177.441 95.2061 194.538 97.3954 219.599C103.234 286.553 167.227 390.458 240.048 451.174C282.641 486.707 321.052 501.14 342.795 489.788C356.637 482.56 362.794 465.462 360.605 440.395L361.277 440.337Z" fill="#B51019"/>
<path d="M95.5534 208.583L95.5534 208.554C95.5534 183.69 103.604 167.004 118.819 160.308C143.857 149.304 185.228 166.865 229.489 207.349C302.779 274.413 362.435 383.89 362.435 451.405L362.435 451.44C362.435 476.304 354.384 492.985 339.175 499.686C314.131 510.69 272.76 493.124 228.499 452.645C155.192 385.587 95.5534 276.104 95.5534 208.583ZM361.108 451.405C361.108 384.22 301.667 275.183 228.586 208.334C184.73 168.22 143.898 150.723 119.358 161.53C104.67 168 96.9029 184.257 96.8971 208.548L96.8971 208.577C96.8971 275.762 156.333 384.805 229.42 451.654C273.275 491.763 314.108 509.26 338.642 498.458C353.33 491.989 361.097 475.731 361.108 451.44L361.108 451.405Z" fill="#B51019"/>
<path d="M95.5478 208.658C95.5478 204.766 95.7197 201.005 96.0633 197.376C98.3279 173.398 108.105 157.661 124.275 151.858C152.377 141.769 196.048 162.7 241.085 207.836C314.143 281.05 368.348 395.346 361.937 462.618C359.649 486.596 349.896 502.339 333.731 508.142C305.623 518.226 261.958 497.3 216.915 452.158C147.802 382.894 95.5536 276.857 95.5478 208.658ZM361.114 451.289C361.114 383.432 309.029 277.824 240.135 208.786C195.474 164.021 152.325 143.217 124.727 153.126C109.089 158.739 99.6369 174.087 97.4012 197.509C91.0302 264.422 145.056 378.249 217.871 451.191C262.532 496.002 305.675 516.783 333.273 506.879C348.911 501.261 358.363 485.913 360.599 462.491C360.947 458.888 361.114 455.147 361.114 451.289Z" fill="#B51019"/>
<path d="M95.432 210.61C95.372 202.448 96.1189 194.3 97.6618 186.285C102.295 163.25 113.844 148.545 131.098 143.767C162.507 135.079 208.297 159.573 253.578 209.336C325.773 288.655 373.648 407.248 360.321 473.71C355.688 496.749 344.144 511.455 326.885 516.233C295.476 524.921 249.686 500.421 204.405 450.664C140.365 380.293 95.432 278.988 95.432 210.61ZM361.219 449.303C361.219 381.278 316.442 280.384 252.605 210.24C207.672 160.858 162.385 136.492 131.474 145.058C114.736 149.692 103.506 164.044 98.994 186.551C97.4673 194.508 96.7282 202.595 96.7873 210.697C96.7873 278.716 141.558 379.61 205.396 449.76C250.334 499.136 295.615 523.502 326.526 514.942C343.258 510.308 354.489 495.956 359 473.449C360.531 465.493 361.274 457.405 361.219 449.303Z" fill="#B51019"/>
<path d="M95.0612 214.775C95.0612 200.191 96.7987 186.887 100.477 175.39C107.508 153.323 121.014 139.759 139.531 136.162C174.45 129.38 222.099 157.696 267.003 211.919C337.646 297.221 378.258 419.55 357.523 484.621C350.492 506.694 336.991 520.258 318.469 523.849C283.556 530.626 235.901 502.298 190.997 448.081C132.859 377.849 95.0612 282.579 95.0612 214.775ZM361.618 445.127C361.618 377.675 323.925 282.759 265.966 212.771C221.387 158.918 174.201 130.787 139.786 137.488C121.779 140.964 108.631 154.233 101.756 175.801C81.1492 240.461 121.646 362.211 192.034 447.224C236.631 501.088 283.788 529.213 318.214 522.517C336.221 519.042 349.374 505.773 356.243 484.199C359.886 472.794 361.618 459.589 361.618 445.127Z" fill="#B51019"/>
<path d="M94.1287 221.424C94.1288 199.693 97.4706 180.302 104.554 164.739C114.128 143.651 129.766 131.349 149.765 129.166C188.292 124.949 237.453 157.285 281.274 215.678C349.693 306.801 382.075 432.229 353.458 495.255C343.901 516.343 328.263 528.651 308.247 530.834C269.714 535.045 220.535 502.709 176.732 444.339C125.213 375.712 94.1287 287.647 94.1287 221.424ZM362.562 438.495C362.562 372.637 331.559 284.879 280.191 216.46C236.671 158.472 187.962 126.339 149.875 130.498C130.368 132.629 115.124 144.665 105.736 165.295C77.2977 227.922 109.616 352.742 177.774 443.534C221.306 501.522 270.015 533.661 308.09 529.502C327.597 527.371 342.841 515.335 352.224 494.699C359.244 479.264 362.562 460.047 362.562 438.495Z" fill="#B51019"/>
<path d="M92.3563 230.673C92.3564 200.451 98.0207 173.965 109.952 154.499C122.277 134.396 140.289 123.513 162.038 123.009C204.179 122.082 254.388 158.565 296.368 220.624C361.815 317.4 384.982 445.191 348.048 505.495C335.723 525.599 317.71 536.487 295.956 536.974C253.827 537.918 203.611 501.429 161.632 439.37C117.302 373.835 92.3563 294.065 92.3563 230.673ZM364.34 429.281C364.34 366.202 339.436 286.721 295.255 221.354C253.549 159.7 203.739 123.432 162.078 124.364C140.799 124.845 123.175 135.508 111.11 155.2C74.3843 215.099 97.5516 342.241 162.744 438.617C204.445 500.3 254.255 536.562 295.927 535.63C317.201 535.155 334.831 524.492 346.895 504.794C358.728 485.508 364.34 459.247 364.34 429.281Z" fill="#B51019"/>
<path d="M89.4432 242.384C89.4432 202.421 98.3337 167.704 116.786 144.775C132.152 125.662 152.864 116.395 176.685 118.011C222.209 121.063 272.888 161.768 312.249 226.897C373.972 329.024 386.963 458.367 341.208 515.231C325.836 534.344 305.125 543.611 281.303 541.989C235.779 538.937 185.101 498.238 145.74 433.103C108.921 372.162 89.4432 301.524 89.4432 242.384ZM367.26 417.622C367.26 358.753 347.828 288.36 311.079 227.586C271.967 162.833 221.694 122.372 176.599 119.354C153.234 117.796 132.911 126.866 117.829 145.597C72.4095 202.056 85.4469 330.709 146.904 432.391C186.039 497.161 236.318 537.622 281.407 540.646C304.772 542.21 325.089 533.116 340.171 514.386C358.45 491.67 367.26 457.255 367.26 417.622Z" fill="#B51019"/>
<path d="M85.0586 256.041C85.0586 205.293 98.3508 161.322 125.097 135.676C143.915 117.634 167.725 110.308 193.945 114.489C242.434 122.221 292.863 167.091 328.842 234.519C386.008 341.668 387.826 471.654 332.897 524.319C314.079 542.36 290.274 549.687 264.055 545.505C215.56 537.773 165.131 492.904 129.146 425.475C99.8219 370.511 85.0586 309.506 85.0586 256.041ZM371.638 404.005C371.638 350.755 356.915 289.964 327.661 235.15C291.879 168.093 241.814 123.484 193.731 115.839C167.945 111.727 144.5 118.932 126.03 136.689C71.4999 188.926 73.4228 318.193 130.339 424.844C166.092 491.902 216.191 536.545 264.269 544.185C290.06 548.297 313.5 541.092 331.976 523.334C358.473 497.949 371.638 454.348 371.638 404.005Z" fill="#B51019"/>
<path d="M78.9484 270.781C78.9484 208.618 98.1135 154.597 134.961 127.341C157.746 110.493 185.095 105.494 214.043 112.862C264.831 125.835 314.201 174.689 346.096 243.543C397.858 355.29 387.514 484.998 323.051 532.653C300.266 549.507 272.917 554.506 243.969 547.133C193.18 534.159 143.817 485.311 111.915 416.452C89.727 368.582 78.9484 317.382 78.9484 270.781ZM377.743 389.288C377.743 342.872 366.999 291.869 344.88 244.133C313.147 175.639 264.113 127.063 213.713 114.188C185.165 106.896 158.209 111.819 135.76 128.424C71.7665 175.749 61.625 304.693 113.12 415.867C144.854 484.361 193.893 532.937 244.282 545.812C272.824 553.104 299.779 548.181 322.234 531.576C358.757 504.568 377.743 450.982 377.743 389.288Z" fill="#B51019"/>
<path d="M70.892 285.516C70.892 211.769 97.7487 147.335 146.4 119.904C173.813 104.475 205.175 102.32 237.112 113.684C289.29 132.276 336.696 184.732 363.924 254.084C409.395 369.92 385.932 498.209 311.577 540.09C284.187 555.525 252.831 557.674 220.889 546.31C168.71 527.747 121.304 475.262 94.0477 405.91C78.375 365.912 70.8978 324.414 70.892 285.516ZM385.788 374.554C385.788 335.8 378.328 294.453 362.672 254.576C335.59 185.561 288.479 133.382 236.666 114.947C205.1 103.722 174.114 105.836 147.083 121.074C73.3072 162.642 50.0936 290.196 95.3277 405.453C122.416 474.445 169.521 526.641 221.34 545.076C252.9 556.307 283.892 554.187 310.923 538.949C359.163 511.739 385.788 447.785 385.788 374.554Z" fill="#B51019"/>
<path d="M60.7852 299.173C60.7852 214.033 97.5228 139.377 159.53 113.499C192.254 99.8416 228.065 101.185 263.146 117.373C315.62 141.606 360.118 197.208 382.231 266.119C420.498 385.471 382.926 511.252 298.47 546.495C265.746 560.152 229.918 558.815 194.854 542.621C142.38 518.393 97.8645 462.786 75.7745 393.881C65.9187 363.275 60.8623 331.327 60.7852 299.173ZM395.883 360.879C395.815 328.846 390.784 297.017 380.969 266.524C358.96 197.972 314.722 142.666 262.584 118.59C227.874 102.564 192.416 101.214 160.069 114.738C98.5421 140.384 62.1231 214.56 62.1173 299.115C62.1879 331.155 67.2249 362.99 77.0487 393.487C99.0576 462.045 143.278 517.345 195.422 541.422C230.132 557.453 265.584 558.797 297.937 545.273C359.458 519.592 395.883 445.434 395.883 360.879Z" fill="#B51019"/>
<path d="M48.5935 310.896C48.5935 214.838 97.6502 130.706 174.317 108.263C213.18 96.8877 253.861 102.465 291.972 124.399C344.301 154.516 384.009 211.12 400.91 279.701C431.028 401.96 378.455 523.988 283.684 551.731C244.826 563.106 204.144 557.523 166.034 535.601C113.705 505.483 73.9964 448.88 57.09 380.293C51.4721 357.587 48.6192 334.286 48.5935 310.896ZM408.069 349.122C408.045 325.832 405.204 302.632 399.607 280.025C382.811 211.792 343.316 155.501 291.3 125.563C253.514 103.821 213.197 98.2835 174.693 109.554C98.6116 131.824 49.9372 215.417 49.9314 310.867C49.9479 334.158 52.7794 357.362 58.3642 379.975C75.1605 448.202 114.661 504.499 166.671 534.437C204.457 556.179 244.78 561.716 283.278 550.445C359.388 528.17 408.069 444.577 408.069 349.133L408.069 349.122Z" fill="#B51019"/>
<path d="M34.3455 320.11C34.3455 213.622 98.4089 121.352 190.817 104.342C235.994 96.0248 283.006 106.948 323.23 135.096C373.399 170.201 408.619 228.42 419.855 294.87C440.908 419.295 372.414 536.284 267.183 555.658C222.006 563.969 174.994 553.046 134.77 524.898C84.6012 489.793 49.3869 431.557 38.145 365.107C35.6243 350.241 34.3534 335.189 34.3455 320.11ZM422.317 339.895C422.31 324.881 421.045 309.893 418.534 295.09C407.356 228.999 372.339 171.081 322.471 136.197C282.508 108.257 235.866 97.409 191.061 105.662C99.3066 122.557 35.6893 214.259 35.6835 320.105C35.6918 335.118 36.9588 350.103 39.4713 364.904C50.6495 430.983 85.6669 488.896 135.54 523.803C175.469 551.749 222.134 562.608 266.939 554.343C358.699 537.443 422.317 445.735 422.317 339.895Z" fill="#B51019"/>
<path d="M18.111 326.516C18.1052 210.002 100.03 111.425 209.044 101.869C324.788 91.7331 427.929 185.844 438.933 311.631C444.262 372.555 427.442 431.748 391.573 478.303C355.705 524.857 305.044 553.22 248.961 558.125C192.879 563.031 138.071 543.906 94.6499 504.261C51.2286 464.616 24.4009 409.276 19.0724 348.346C18.4005 341.03 18.1168 333.733 18.111 326.516ZM438.557 333.715C438.557 326.429 438.236 319.107 437.595 311.747C426.655 186.719 324.18 93.1463 209.16 103.207C100.853 112.682 19.4605 210.709 19.4547 326.522C19.4547 333.704 19.7713 340.946 20.4045 348.247C25.7099 408.835 52.3986 463.898 95.5534 503.288C138.708 542.679 193.134 561.664 248.84 556.816C304.546 551.969 354.83 523.803 390.514 477.509C421.847 436.816 438.557 386.438 438.557 333.715Z" fill="#B51019"/>
<path d="M2.05078e-05 329.997C2.60271e-05 203.73 102.73 101 229.003 101C355.276 101 458 203.73 458 329.997C458 456.265 355.27 559 229.003 559C102.735 559 1.49882e-05 456.27 2.05078e-05 329.997ZM456.656 329.997C456.656 204.471 354.529 102.344 229.003 102.344C103.477 102.344 1.34371 204.471 1.34371 329.997C1.3437 455.523 103.471 557.656 229.003 557.656C354.535 557.656 456.656 455.529 456.656 329.997Z" fill="#B51019"/>
</g>
<defs>
<clipPath id="clip0">
<rect width="458" height="458" fill="white" transform="translate(458 101) rotate(90)"/>
</clipPath>
</defs>
</svg>
