<svg width="256" height="114" viewBox="0 0 256 114" fill="none" xmlns="http://www.w3.org/2000/svg">
<g filter="url(#filter0_d)">
<path d="M105.72 30V44H101.76V38.54H96.36V44H92.4V30H96.36V35.26H101.76V30H105.72ZM119.413 38.6C119.413 38.6267 119.393 38.94 119.353 39.54H111.473C111.633 40.1 111.94 40.5333 112.393 40.84C112.86 41.1333 113.44 41.28 114.133 41.28C114.653 41.28 115.1 41.2067 115.473 41.06C115.86 40.9133 116.247 40.6733 116.633 40.34L118.633 42.42C117.58 43.5933 116.04 44.18 114.013 44.18C112.747 44.18 111.633 43.94 110.673 43.46C109.713 42.98 108.967 42.3133 108.433 41.46C107.913 40.6067 107.653 39.64 107.653 38.56C107.653 37.4933 107.907 36.54 108.413 35.7C108.933 34.8467 109.647 34.18 110.553 33.7C111.46 33.22 112.48 32.98 113.613 32.98C114.693 32.98 115.673 33.2067 116.553 33.66C117.433 34.1 118.127 34.7467 118.633 35.6C119.153 36.44 119.413 37.44 119.413 38.6ZM113.633 35.68C113.047 35.68 112.553 35.8467 112.153 36.18C111.767 36.5133 111.52 36.9667 111.413 37.54H115.853C115.747 36.9667 115.493 36.5133 115.093 36.18C114.707 35.8467 114.22 35.68 113.633 35.68ZM127.752 44L125.812 41.16L123.732 44H119.612L123.732 38.58L119.732 33.16H124.012L125.932 35.9L127.932 33.16H131.952L127.952 38.44L132.092 44H127.752Z" fill="white"/>
</g>
<g filter="url(#filter1_d)">
<path d="M103.64 66.94V70H92.4V56H103.38V59.06H96.32V61.42H102.54V64.38H96.32V66.94H103.64ZM112.718 58.98C114.064 58.98 115.144 59.38 115.958 60.18C116.784 60.98 117.198 62.1867 117.198 63.8V70H113.398V64.42C113.398 62.94 112.804 62.2 111.618 62.2C110.964 62.2 110.438 62.4133 110.038 62.84C109.651 63.2667 109.458 63.9067 109.458 64.76V70H105.658V59.16H109.278V60.34C109.704 59.9 110.211 59.5667 110.798 59.34C111.384 59.1 112.024 58.98 112.718 58.98ZM125.28 70.18C124.08 70.18 123.006 69.94 122.06 69.46C121.113 68.98 120.373 68.3133 119.84 67.46C119.32 66.6067 119.06 65.64 119.06 64.56C119.06 63.48 119.32 62.52 119.84 61.68C120.373 60.8267 121.113 60.1667 122.06 59.7C123.006 59.22 124.08 58.98 125.28 58.98C126.506 58.98 127.566 59.2467 128.46 59.78C129.353 60.3 129.986 61.0267 130.36 61.96L127.42 63.46C126.926 62.4867 126.206 62 125.26 62C124.58 62 124.013 62.2267 123.56 62.68C123.12 63.1333 122.9 63.76 122.9 64.56C122.9 65.3733 123.12 66.0133 123.56 66.48C124.013 66.9333 124.58 67.16 125.26 67.16C126.206 67.16 126.926 66.6733 127.42 65.7L130.36 67.2C129.986 68.1333 129.353 68.8667 128.46 69.4C127.566 69.92 126.506 70.18 125.28 70.18ZM131.79 59.16H135.59V70H131.79V59.16ZM133.69 57.96C132.997 57.96 132.437 57.7667 132.01 57.38C131.584 56.9933 131.37 56.5133 131.37 55.94C131.37 55.3667 131.584 54.8867 132.01 54.5C132.437 54.1133 132.997 53.92 133.69 53.92C134.384 53.92 134.944 54.1067 135.37 54.48C135.797 54.84 136.01 55.3067 136.01 55.88C136.01 56.48 135.797 56.98 135.37 57.38C134.944 57.7667 134.384 57.96 133.69 57.96ZM144.88 58.98C145.867 58.98 146.76 59.2133 147.56 59.68C148.373 60.1333 149.013 60.7867 149.48 61.64C149.96 62.48 150.2 63.46 150.2 64.58C150.2 65.7 149.96 66.6867 149.48 67.54C149.013 68.38 148.373 69.0333 147.56 69.5C146.76 69.9533 145.867 70.18 144.88 70.18C143.613 70.18 142.607 69.8 141.86 69.04V73.88H138.06V59.16H141.68V60.24C142.387 59.4 143.453 58.98 144.88 58.98ZM144.08 67.16C144.747 67.16 145.293 66.9333 145.72 66.48C146.147 66.0133 146.36 65.38 146.36 64.58C146.36 63.78 146.147 63.1533 145.72 62.7C145.293 62.2333 144.747 62 144.08 62C143.413 62 142.867 62.2333 142.44 62.7C142.013 63.1533 141.8 63.78 141.8 64.58C141.8 65.38 142.013 66.0133 142.44 66.48C142.867 66.9333 143.413 67.16 144.08 67.16ZM159.026 58.98C160.373 58.98 161.453 59.38 162.266 60.18C163.093 60.98 163.506 62.1867 163.506 63.8V70H159.706V64.42C159.706 62.94 159.113 62.2 157.926 62.2C157.273 62.2 156.746 62.4133 156.346 62.84C155.959 63.2667 155.766 63.9067 155.766 64.76V70H151.966V55.16H155.766V60.16C156.179 59.7733 156.666 59.48 157.226 59.28C157.786 59.08 158.386 58.98 159.026 58.98ZM177.128 64.6C177.128 64.6267 177.108 64.94 177.068 65.54H169.188C169.348 66.1 169.655 66.5333 170.108 66.84C170.575 67.1333 171.155 67.28 171.848 67.28C172.368 67.28 172.815 67.2067 173.188 67.06C173.575 66.9133 173.961 66.6733 174.348 66.34L176.348 68.42C175.295 69.5933 173.755 70.18 171.728 70.18C170.461 70.18 169.348 69.94 168.388 69.46C167.428 68.98 166.681 68.3133 166.148 67.46C165.628 66.6067 165.368 65.64 165.368 64.56C165.368 63.4933 165.621 62.54 166.128 61.7C166.648 60.8467 167.361 60.18 168.268 59.7C169.175 59.22 170.195 58.98 171.328 58.98C172.408 58.98 173.388 59.2067 174.268 59.66C175.148 60.1 175.841 60.7467 176.348 61.6C176.868 62.44 177.128 63.44 177.128 64.6ZM171.348 61.68C170.761 61.68 170.268 61.8467 169.868 62.18C169.481 62.5133 169.235 62.9667 169.128 63.54H173.568C173.461 62.9667 173.208 62.5133 172.808 62.18C172.421 61.8467 171.935 61.68 171.348 61.68ZM182.5 60.46C182.887 59.9667 183.387 59.6 184 59.36C184.627 59.1067 185.34 58.98 186.14 58.98V62.4C185.793 62.36 185.507 62.34 185.28 62.34C184.467 62.34 183.827 62.56 183.36 63C182.907 63.44 182.68 64.1133 182.68 65.02V70H178.88V59.16H182.5V60.46ZM191.668 70.18C190.761 70.18 189.868 70.08 188.988 69.88C188.108 69.6667 187.401 69.3933 186.868 69.06L188.008 66.46C188.501 66.7667 189.088 67.0133 189.768 67.2C190.448 67.3733 191.121 67.46 191.788 67.46C192.401 67.46 192.834 67.4 193.088 67.28C193.354 67.1467 193.488 66.96 193.488 66.72C193.488 66.48 193.328 66.3133 193.008 66.22C192.701 66.1133 192.208 66.0133 191.528 65.92C190.661 65.8133 189.921 65.6733 189.308 65.5C188.708 65.3267 188.188 65.0067 187.748 64.54C187.308 64.0733 187.088 63.42 187.088 62.58C187.088 61.8867 187.294 61.2733 187.708 60.74C188.121 60.1933 188.721 59.7667 189.508 59.46C190.308 59.14 191.261 58.98 192.368 58.98C193.154 58.98 193.934 59.06 194.708 59.22C195.481 59.38 196.128 59.6067 196.648 59.9L195.508 62.48C194.548 61.9467 193.508 61.68 192.388 61.68C191.788 61.68 191.348 61.7533 191.068 61.9C190.788 62.0333 190.648 62.2133 190.648 62.44C190.648 62.6933 190.801 62.8733 191.108 62.98C191.414 63.0733 191.921 63.1733 192.628 63.28C193.521 63.4133 194.261 63.5667 194.848 63.74C195.434 63.9133 195.941 64.2333 196.368 64.7C196.808 65.1533 197.028 65.7933 197.028 66.62C197.028 67.3 196.821 67.9133 196.408 68.46C195.994 68.9933 195.381 69.4133 194.568 69.72C193.768 70.0267 192.801 70.18 191.668 70.18Z" fill="white"/>
</g>
<g filter="url(#filter2_d)">
<path d="M83.9064 61.3805L79.156 71.1388L74.4056 80.8972L52.9082 77.8923L31.4108 74.8875L23.8403 32.1399L62.1562 11.7302L77.7817 26.797L85.5945 34.3304" stroke="white" stroke-width="10"/>
<mask id="mask0" mask-type="alpha" maskUnits="userSpaceOnUse" x="37" y="25" width="44" height="45">
<path fill-rule="evenodd" clip-rule="evenodd" d="M76.7539 44.8122L66.0577 65.7831L42.8079 62.0907L39.135 38.8379L60.1148 28.1592L76.7539 44.8122Z" fill="#C4C4C4" stroke="white"/>
</mask>
<g mask="url(#mask0)">
<path d="M70 64H62.2572V50.6374H50.7872V64H43V32H50.7872V44.7033H62.2572V32H70V64Z" fill="white"/>
</g>
</g>
<defs>
<filter id="filter0_d" x="88.4" y="30" width="47.6923" height="22.18" filterUnits="userSpaceOnUse" color-interpolation-filters="sRGB">
<feFlood flood-opacity="0" result="BackgroundImageFix"/>
<feColorMatrix in="SourceAlpha" type="matrix" values="0 0 0 0 0 0 0 0 0 0 0 0 0 0 0 0 0 0 127 0"/>
<feOffset dy="4"/>
<feGaussianBlur stdDeviation="2"/>
<feColorMatrix type="matrix" values="0 0 0 0 0 0 0 0 0 0 0 0 0 0 0 0 0 0 0.25 0"/>
<feBlend mode="normal" in2="BackgroundImageFix" result="effect1_dropShadow"/>
<feBlend mode="normal" in="SourceGraphic" in2="effect1_dropShadow" result="shape"/>
</filter>
<filter id="filter1_d" x="88.4" y="53.92" width="112.628" height="27.96" filterUnits="userSpaceOnUse" color-interpolation-filters="sRGB">
<feFlood flood-opacity="0" result="BackgroundImageFix"/>
<feColorMatrix in="SourceAlpha" type="matrix" values="0 0 0 0 0 0 0 0 0 0 0 0 0 0 0 0 0 0 127 0"/>
<feOffset dy="4"/>
<feGaussianBlur stdDeviation="2"/>
<feColorMatrix type="matrix" values="0 0 0 0 0 0 0 0 0 0 0 0 0 0 0 0 0 0 0.25 0"/>
<feBlend mode="normal" in2="BackgroundImageFix" result="effect1_dropShadow"/>
<feBlend mode="normal" in="SourceGraphic" in2="effect1_dropShadow" result="shape"/>
</filter>
<filter id="filter2_d" x="0.461586" y="0.35141" width="113.085" height="113.276" filterUnits="userSpaceOnUse" color-interpolation-filters="sRGB">
<feFlood flood-opacity="0" result="BackgroundImageFix"/>
<feColorMatrix in="SourceAlpha" type="matrix" values="0 0 0 0 0 0 0 0 0 0 0 0 0 0 0 0 0 0 127 0"/>
<feOffset dy="4"/>
<feGaussianBlur stdDeviation="2"/>
<feColorMatrix type="matrix" values="0 0 0 0 0 0 0 0 0 0 0 0 0 0 0 0 0 0 0.25 0"/>
<feBlend mode="normal" in2="BackgroundImageFix" result="effect1_dropShadow"/>
<feBlend mode="normal" in="SourceGraphic" in2="effect1_dropShadow" result="shape"/>
</filter>
</defs>
</svg>
